<?xml version="1.0" encoding="UTF-8"?>
<svg id="_レイヤー_1" data-name=" レイヤー 1" xmlns="http://www.w3.org/2000/svg" version="1.1" viewBox="0 0 24 24">
  <defs>
    <style>
      .cls-1 {
        fill: none;
        stroke: #fff;
        stroke-miterlimit: 10;
      }

      .cls-2 {
        fill: #fff;
        stroke-width: 0px;
      }
    </style>
  </defs>
  <path class="cls-2" d="M6,11.1c-.4-1.3,0-2.2,1-2.7,1-.4,2,.2,2.4,1.4.4,1.3,0,2.2-1,2.7-1,.4-2-.2-2.4-1.4ZM16,16.3c-.4,1.8-2.7.8-3.9.8s-3.6,1.1-4-.7c-.3-1.8,2.2-4.1,3.9-4.1s4.2,2.4,3.9,4.1h0ZM12.1,10.9c-1,0-1.8-.8-1.8-2.2s.8-2.2,1.9-2.2,1.8.8,1.8,2.2-.8,2.2-1.9,2.2ZM18,11.2c-.5,1.2-1.5,1.8-2.4,1.4s-1.4-1.4-1-2.6c.4-1.2,1.5-1.8,2.4-1.4s1.4,1.4,1,2.6Z"/>
  <circle class="cls-1" cx="12" cy="12" r="9.6"/>
</svg>