<?xml version="1.0" encoding="UTF-8"?>
<svg id="_レイヤー_1" data-name=" レイヤー 1" xmlns="http://www.w3.org/2000/svg" version="1.1" viewBox="0 0 24 24">
  <defs>
    <style>
      .cls-1 {
        fill: #000;
        stroke-width: 0px;
      }
    </style>
  </defs>
  <path class="cls-1" d="M5.3,11c-.5-1.4,0-2.5,1.1-3,1.1-.4,2.2.2,2.7,1.6.5,1.4,0,2.5-1.1,3-1.1.4-2.2-.2-2.7-1.6ZM16.4,16.8c-.4,2-3,.9-4.3.9s-4,1.2-4.4-.8c-.3-2,2.4-4.6,4.3-4.6s4.7,2.7,4.3,4.6h.1ZM12.1,10.8c-1.1,0-2-.9-2-2.4s.9-2.4,2.1-2.4,2,.9,2,2.4-.9,2.4-2.1,2.4ZM18.7,11.1c-.5,1.3-1.7,2-2.7,1.6s-1.6-1.6-1.1-2.9c.5-1.3,1.7-2,2.7-1.6s1.6,1.6,1.1,2.9Z"/>
  <path class="cls-1" d="M12,2.5c5.2,0,9.5,4.3,9.5,9.5s-4.3,9.5-9.5,9.5S2.5,17.2,2.5,12,6.8,2.5,12,2.5M12,1.2C6,1.2,1.2,6,1.2,12s4.8,10.8,10.8,10.8,10.8-4.8,10.8-10.8S18,1.2,12,1.2h0Z"/>
</svg>