<?xml version="1.0" encoding="utf-8"?>
<!-- Generator: Adobe Illustrator 28.3.0, SVG Export Plug-In . SVG Version: 6.00 Build 0)  -->
<svg version="1.1" id="レイヤー_1" xmlns="http://www.w3.org/2000/svg" xmlns:xlink="http://www.w3.org/1999/xlink" x="0px"
	 y="0px" viewBox="0 0 2400 500" style="enable-background:new 0 0 2400 500;" xml:space="preserve">
<style type="text/css">
	.st0{fill:#3D454C;}
	.st1{fill:#3C8ACC;}
</style>
<g>
	<g>
		<g>
			<path class="st0" d="M671.3283691,402.510498c-3.901123,0-7.2207642-1.358551-9.9378662-4.0914612
				c-2.7381592-2.7223206-4.0914307-6.0367126-4.0914307-9.9378662V113.1336136
				c0-4.2817383,1.3532715-7.7917099,4.0914307-10.5246201c2.7171021-2.7223434,6.0367432-4.0914383,9.9378662-4.0914383h47.3529053
				c3.890564,0,7.3053589,1.3690948,10.2232666,4.0914383c2.9285278,2.7329102,4.3875122,6.2428818,4.3875122,10.5246201v23.9671707
				c8.96521-12.4646225,20.5523071-22.0113144,34.7825317-28.6453705c14.2196045-6.6234741,30.69104-9.9378586,49.4038696-9.9378586
				h23.9671631c4.2817383,0,7.6859741,1.3690948,10.2233276,4.0914383c2.5372925,2.7329102,3.8059692,6.0472946,3.8059692,9.9378662
				v42.0932007c0,3.9011383-1.2686768,7.2155151-3.8059692,9.9378662
				c-2.5373535,2.7329102-5.9415894,4.0914307-10.2233276,4.0914307h-45.5979004
				c-18.7127686,0-33.2390137,5.1698151-43.5574341,15.4935608c-10.3290405,10.3290405-15.4882812,24.8446655-15.4882812,43.5521545
				v160.766098c0,3.9011536-1.3743896,7.2155457-4.0914307,9.9378662
				c-2.7382202,2.7329102-6.2376099,4.0914612-10.5299072,4.0914612H671.3283691z"/>
			<path class="st0" d="M1005.5366821,408.3569031c-23.7769165,0-44.3397827-5.3601074-61.6782227-16.0750122
				c-17.348938-10.7149353-30.6911011-25.9177551-40.0474854-45.6031799
				c-9.3563843-19.6748352-14.0292969-42.9653931-14.0292969-69.8557739V112.5468597
				c0-3.8905716,1.3638306-7.2049561,4.0914307-9.9378662c2.7276611-2.7223434,6.0367432-4.0914383,9.9378662-4.0914383h51.4443359
				c4.2817383,0,7.6965332,1.3690948,10.2338867,4.0914383c2.5267334,2.7329102,3.7954102,6.0472946,3.7954102,9.9378662v160.766098
				c0,48.3308105,21.239563,72.4935608,63.729187,72.4935608c20.2563477,0,36.3366699-6.433197,48.2198486-19.2942505
				c11.8936768-12.861084,17.8352051-30.5906677,17.8352051-53.1993103v-160.766098
				c0-3.8905716,1.3638916-7.2049561,4.0914307-9.9378662c2.7276611-2.7223434,6.0367432-4.0914383,9.9378662-4.0914383h51.4443359
				c3.890625,0,7.2102051,1.3690948,9.9378662,4.0914383c2.7276611,2.7329102,4.0914307,6.0472946,4.0914307,9.9378662v275.9343262
				c0,3.9011536-1.3637695,7.2155457-4.0914307,9.9378662c-2.7276611,2.7329102-6.0472412,4.0914612-9.9378662,4.0914612
				h-47.3529053c-4.2922363,0-7.6965332-1.358551-10.2232666-4.0914612
				c-2.5478516-2.7223206-3.8060303-6.0367126-3.8060303-9.9378662v-23.9671631
				c-10.5192871,13.6434326-23.5865479,24.3583374-39.1699219,32.1500549
				C1048.3963623,404.45578,1028.9223633,408.3569031,1005.5366821,408.3569031z"/>
			<path class="st0" d="M1278.5424805,402.510498c-3.901123,0-7.2208252-1.358551-9.9378662-4.0914612
				c-2.7381592-2.7223206-4.0914307-6.0367126-4.0914307-9.9378662V113.1336136
				c0-4.2817383,1.3532715-7.7917099,4.0914307-10.5246201c2.717041-2.7223434,6.0367432-4.0914383,9.9378662-4.0914383h47.3529053
				c3.8905029,0,7.3052979,1.3690948,10.2232666,4.0914383c2.9284668,2.7329102,4.3874512,6.2428818,4.3874512,10.5246201
				v23.9671707c8.96521-12.4646225,20.5523682-22.0113144,34.7825928-28.6453705
				c14.2196045-6.6234741,30.69104-9.9378586,49.4038086-9.9378586h23.9671631
				c4.2817383,0,7.6860352,1.3690948,10.2233887,4.0914383c2.5372314,2.7329102,3.8059082,6.0472946,3.8059082,9.9378662v42.0932007
				c0,3.9011383-1.2686768,7.2155151-3.8059082,9.9378662c-2.5373535,2.7329102-5.9416504,4.0914307-10.2233887,4.0914307
				h-45.5979004c-18.7127686,0-33.2388916,5.1698151-43.557373,15.4935608
				c-10.3291016,10.3290405-15.4882812,24.8446655-15.4882812,43.5521545v160.766098
				c0,3.9011536-1.3743896,7.2155457-4.0914307,9.9378662c-2.7382812,2.7329102-6.2376709,4.0914612-10.5299072,4.0914612
				H1278.5424805z"/>
			<path class="st0" d="M1612.7507324,408.3569031c-23.7768555,0-44.3397217-5.3601074-61.6782227-16.0750122
				c-17.348877-10.7149353-30.69104-25.9177551-40.0473633-45.6031799
				c-9.3564453-19.6748352-14.0294189-42.9653931-14.0294189-69.8557739V112.5468597
				c0-3.8905716,1.3638916-7.2049561,4.0915527-9.9378662c2.7275391-2.7223434,6.0366211-4.0914383,9.9378662-4.0914383h51.4442139
				c4.2817383,0,7.6965332,1.3690948,10.2338867,4.0914383c2.5267334,2.7329102,3.7954102,6.0472946,3.7954102,9.9378662v160.766098
				c0,48.3308105,21.239624,72.4935608,63.729248,72.4935608c20.2563477,0,36.3366699-6.433197,48.2197266-19.2942505
				c11.8937988-12.861084,17.8353271-30.5906677,17.8353271-53.1993103v-160.766098
				c0-3.8905716,1.3638916-7.2049561,4.0914307-9.9378662c2.7276611-2.7223434,6.0367432-4.0914383,9.9378662-4.0914383h51.4443359
				c3.890625,0,7.2102051,1.3690948,9.9378662,4.0914383c2.7276611,2.7329102,4.0914307,6.0472946,4.0914307,9.9378662v275.9343262
				c0,3.9011536-1.3637695,7.2155457-4.0914307,9.9378662c-2.7276611,2.7329102-6.0472412,4.0914612-9.9378662,4.0914612
				h-47.3529053c-4.2922363,0-7.6965332-1.358551-10.2232666-4.0914612
				c-2.5478516-2.7223206-3.8060303-6.0367126-3.8060303-9.9378662v-23.9671631
				c-10.5192871,13.6434326-23.5865479,24.3583374-39.1699219,32.1500549
				C1655.6104736,404.45578,1636.1364746,408.3569031,1612.7507324,408.3569031z"/>
			<path class="st0" d="M1885.7459717,402.510498c-3.901123,0-7.2208252-1.358551-9.9378662-4.0914612
				c-2.7381592-2.7223206-4.0914307-6.0367126-4.0914307-9.9378662V113.1336136
				c0-4.2817383,1.3532715-7.7917099,4.0914307-10.5246201c2.717041-2.7223434,6.0367432-4.0914383,9.9378662-4.0914383h47.3529053
				c3.890625,0,7.3054199,1.3690948,10.2232666,4.0914383c2.9285889,2.7329102,4.3875732,6.2428818,4.3875732,10.5246201v23.9671707
				c8.96521-12.4646225,20.5522461-22.0113144,34.7824707-28.6453705c14.2196045-6.6234741,30.69104-9.9378586,49.4039307-9.9378586
				h23.9671631c4.2817383,0,7.6860352,1.3690948,10.2231445,4.0914383c2.5373535,2.7329102,3.8061523,6.0472946,3.8061523,9.9378662
				v42.0932007c0,3.9011383-1.2687988,7.2155151-3.8061523,9.9378662
				c-2.5371094,2.7329102-5.9414062,4.0914307-10.2231445,4.0914307h-45.5979004
				c-18.7127686,0-33.2390137,5.1698151-43.5574951,15.4935608c-10.3289795,10.3290405-15.4882812,24.8446655-15.4882812,43.5521545
				v160.766098c0,3.9011536-1.3743896,7.2155457-4.0914307,9.9378662
				c-2.7381592,2.7329102-6.2375488,4.0914612-10.5299072,4.0914612H1885.7459717z"/>
			<path class="st0" d="M2219.9648438,408.3569031c-23.7768555,0-44.3398438-5.3601074-61.6782227-16.0750122
				c-17.348877-10.7149353-30.690918-25.9177551-40.0473633-45.6031799
				c-9.3564453-19.6748352-14.0292969-42.9653931-14.0292969-69.8557739V112.5468597
				c0-3.8905716,1.3637695-7.2049561,4.0913086-9.9378662c2.7277832-2.7223434,6.0368652-4.0914383,9.9379883-4.0914383h51.4443359
				c4.2817383,0,7.6965332,1.3690948,10.2338867,4.0914383c2.5266113,2.7329102,3.7954102,6.0472946,3.7954102,9.9378662v160.766098
				c0,48.3308105,21.239502,72.4935608,63.7290039,72.4935608c20.2563477,0,36.3366699-6.433197,48.2199707-19.2942505
				c11.8935547-12.861084,17.8352051-30.5906677,17.8352051-53.1993103v-160.766098
				c0-3.8905716,1.3637695-7.2049561,4.0915527-9.9378662c2.7275391-2.7223434,6.0366211-4.0914383,9.9377441-4.0914383h51.4443359
				c3.890625,0,7.2102051,1.3690948,9.9377441,4.0914383C2391.6362305,105.3419037,2393,108.6562881,2393,112.5468597v275.9343262
				c0,3.9011536-1.3637695,7.2155457-4.0915527,9.9378662c-2.7275391,2.7329102-6.0471191,4.0914612-9.9377441,4.0914612
				h-47.3527832c-4.2924805,0-7.6965332-1.358551-10.2233887-4.0914612
				c-2.5478516-2.7223206-3.8059082-6.0367126-3.8059082-9.9378662v-23.9671631
				c-10.5195312,13.6434326-23.5866699,24.3583374-39.170166,32.1500549
				C2262.8244629,404.45578,2243.3505859,408.3569031,2219.9648438,408.3569031z"/>
		</g>
	</g>
	<g>
		<path class="st1" d="M428.6002502,4.3894806H74.5699081c-38.0102425,0-69.1094894,31.099247-69.1094894,69.1092453v17.458046
			c43.0968971-23.020874,92.2580872-36.1204224,144.4360657-36.1204224
			c169.6178284,0,307.6096191,137.9957733,307.6096191,307.6135864c0,48.0823669-11.1092834,93.6114807-30.8641357,134.1885986
			h1.9582825c38.0102539,0,69.1090088-31.0992432,69.1090088-69.1092224V73.4987259
			C497.709259,35.4887276,466.6105042,4.3894806,428.6002502,4.3894806z M149.8964844,94.3073654
			c-53.1600876,0-102.7121429,15.6131134-144.4360657,42.4024734v55.6473541
			c38.9690475-33.1420898,89.3901215-53.2039795,144.4360657-53.2039795
			c123.1271667,0,223.2947388,100.1715393,223.2947388,223.2967377c0,50.3260803-16.7494812,96.8055725-44.9470215,134.1885986
			h53.6531067c22.9358215-39.4992676,36.1417542-85.3173218,36.1417542-134.1885986
			C418.0390625,214.5953522,297.7490845,94.3073654,149.8964844,94.3073654z M149.8964844,178.6242371
			c-58.5458374,0-110.747612,27.5445404-144.4360657,70.3182831v178.5868073
			c0,38.0099792,31.099247,69.1092224,69.1094894,69.1092224h200.7770996
			c35.8858032-33.5691528,58.3771667-81.2889099,58.3771667-134.1885986
			C333.7241821,261.0879822,251.2584534,178.6242371,149.8964844,178.6242371z M89.2802734,263.6342773
			c9.7616119-20.959671,29.0060577-28.5762634,44.9143066-20.8011932
			c16.1820374,7.1892548,22.7170563,26.8267975,12.9356079,47.7768097
			c-9.7611084,20.9596863-29.0050583,28.5765076-44.9138031,20.8012085
			C86.0343399,304.2220764,79.4988251,284.5840454,89.2802734,263.6342773z M148.7055359,451.2314758
			c-27.094902,18.9091492-42.8369751-23.4028015-58.6117935-39.1776428
			c-15.7748184-15.7748108-58.1395912-31.5701904-39.2304459-58.6646118
			c18.229599-26.1207275,78.0318451-25.9493408,100.9120941-3.0696106
			C174.6546478,373.1993713,174.8262634,433.0018616,148.7055359,451.2314758z M167.0636139,335.0311584
			c-12.7476349-12.2900696-12.1722565-32.9789124,4.185379-49.3199158
			c16.3407745-16.3569031,37.0296326-16.9322815,49.3194275-4.1851501
			c12.7476349,12.2905579,12.1717529,32.9786682-4.1848907,49.3199158
			C200.0422668,347.2029114,179.3539124,347.7787781,167.0636139,335.0311584z M238.4592438,412.8129883
			c-20.9497528,9.7819519-40.5880432,3.2464294-47.7768097-12.9356079
			c-7.7750549-15.9087219-0.1582336-35.1529541,20.8014374-44.9140625
			c20.9497681-9.7814331,40.5870667-3.2466736,47.7763214,12.9356384
			C267.0357361,383.8074341,259.4189148,403.0518799,238.4592438,412.8129883z"/>
	</g>
</g>
</svg>
